<svg width="24" height="24" viewBox="0 0 24 24" fill="none" xmlns="http://www.w3.org/2000/svg">
<path d="M19.6489 3.95483H17.3156V3.02142C17.3156 2.46631 16.8613 2.01221 16.3062 2.01221C15.7511 2.01221 15.2972 2.46631 15.2972 3.02142V3.95483H8.70321V3.02142C8.70321 2.46631 8.24911 2.01221 7.694 2.01221C7.13889 2.01221 6.68479 2.46631 6.68479 3.02142V3.95483H4.35144C3.3961 3.95483 2.61877 4.73198 2.61877 5.68731V18.4854C2.61877 19.4407 3.39593 20.2178 4.35144 20.2178H18.1008C19.91 20.2178 21.3814 18.7464 21.3814 16.9373V5.68731C21.3814 4.73198 20.6043 3.95483 19.6489 3.95483ZM4.35144 5.33612H6.686C6.69929 5.87983 7.14718 6.32064 7.694 6.32064C8.24064 6.32064 8.68836 5.87983 8.70182 5.33612H15.2984C15.3118 5.87983 15.7594 6.32064 16.3062 6.32064C16.853 6.32064 17.3009 5.87983 17.3144 5.33612H19.6489C19.8396 5.33612 20.0001 5.49704 20.0001 5.68731V8.38498H4.00007V5.68731C4.00007 5.49687 4.16099 5.33612 4.35144 5.33612ZM4.00007 18.4854V9.7447H20.0001V15.7986H17.1776L17.1569 18.8366H4.35144C4.16099 18.8366 4.00007 18.6756 4.00007 18.4854ZM18.5387 18.7835L18.5498 17.1799H19.9827C19.8817 17.9669 19.2984 18.6033 18.5387 18.7835Z" fill="white"/>
<path d="M8.02724 13.0049C8.03414 12.3721 8.25981 11.9094 8.62206 11.6009C8.98448 11.2999 9.47691 11.1533 10.0101 11.1533C11.3912 11.1533 11.8493 12.0793 11.8493 12.5343C11.8493 13.6607 11.2201 13.6607 11.2201 13.6839V13.6992C11.2201 13.761 11.9995 13.761 11.9995 14.9569C11.9995 15.6127 11.562 16.6464 10.003 16.6464C7.86269 16.6464 7.85613 14.9489 7.89032 14.548H9.18925C9.18235 14.8336 9.24399 15.0493 9.37383 15.1883C9.50367 15.3656 9.70206 15.4276 9.94137 15.4276C10.3311 15.4276 10.5773 15.2656 10.5773 14.8258C10.5773 14.355 10.256 14.2702 9.94137 14.2702C9.74298 14.2702 9.64732 14.2935 9.54476 14.3091V13.2596C9.64732 13.2674 9.75679 13.2905 9.94137 13.2905C10.2287 13.2905 10.5909 13.2213 10.5909 12.8048C10.5909 12.4652 10.2491 12.334 9.96882 12.334C9.5995 12.334 9.29872 12.5576 9.31236 13.0051L8.02724 13.0049Z" fill="white"/>
<path d="M14.0312 13.4909H12.9166V12.38C13.6071 12.3956 14.291 12.1026 14.3318 11.2151H15.4532V16.5847H14.0312V13.4909Z" fill="white"/>
</svg>
